<?xml version="1.0" standalone="no"?>
<!DOCTYPE svg PUBLIC "-//W3C//DTD SVG 20010904//EN"
 "http://www.w3.org/TR/2001/REC-SVG-20010904/DTD/svg10.dtd">
<svg version="1.0" xmlns="http://www.w3.org/2000/svg"
 width="610.000000pt" height="575.000000pt" viewBox="0 0 610.000000 575.000000"
 preserveAspectRatio="xMidYMid meet">

<g transform="translate(0.000000,575.000000) scale(0.100000,-0.100000)"
fill="#000000" stroke="none">
<path d="M2675 5259 c-205 -27 -360 -148 -467 -364 -20 -38 -41 -87 -48 -108
-9 -28 -16 -36 -28 -33 -162 47 -271 42 -399 -18 -129 -61 -238 -201 -280
-357 -20 -79 -22 -243 -4 -319 39 -160 168 -344 292 -417 16 -10 29 -24 29
-31 0 -8 -21 -75 -46 -149 -25 -75 -48 -157 -51 -182 -5 -43 -3 -48 21 -59 15
-7 40 -12 57 -12 25 0 29 -3 24 -22 -21 -91 -71 -754 -78 -1033 -2 -86 -3 -90
-24 -88 -16 2 -49 -33 -152 -163 -104 -130 -144 -173 -192 -204 -82 -53 -149
-74 -235 -74 -170 1 -301 125 -405 386 -119 299 -116 679 7 1082 131 431 286
623 441 549 25 -12 41 -29 55 -60 17 -39 18 -61 13 -275 -7 -243 2 -322 35
-338 138 -67 158 -73 219 -67 79 7 131 33 154 77 16 32 17 65 15 350 -3 305
-4 316 -25 351 -67 107 -307 192 -582 206 -136 7 -203 -5 -293 -49 -79 -39
-188 -146 -253 -248 -138 -215 -259 -599 -295 -936 -17 -161 -15 -445 4 -544
67 -358 311 -696 583 -811 67 -28 93 -33 183 -37 121 -5 192 10 305 63 127 59
306 204 391 315 l39 51 6 -108 c6 -115 22 -168 76 -246 49 -71 120 -88 165
-39 40 42 46 60 62 183 23 170 162 579 174 511 2 -13 -6 -78 -18 -144 -19
-105 -20 -130 -10 -187 25 -145 87 -225 189 -245 69 -13 171 39 279 143 l54
51 46 -41 c161 -141 350 -126 539 45 89 80 139 116 130 94 -20 -54 -29 -117
-35 -241 l-7 -141 -473 -132 c-458 -129 -475 -133 -499 -117 -51 34 -127 22
-438 -66 -159 -45 -396 -112 -525 -149 -279 -79 -290 -85 -290 -179 0 -96 59
-185 122 -185 22 -1 241 60 832 228 142 41 273 83 292 94 18 12 42 36 54 55
12 20 34 38 53 44 122 38 869 243 872 239 3 -3 10 -62 15 -131 24 -310 103
-465 251 -491 95 -17 158 32 229 178 76 157 130 385 130 548 0 64 3 77 18 82
9 2 51 14 91 26 l75 22 60 -64 c34 -35 105 -114 159 -177 104 -118 186 -182
261 -202 24 -7 86 -9 151 -6 100 4 136 12 400 87 526 149 557 159 576 176 30
27 42 90 41 214 -4 371 -221 1004 -379 1101 -25 16 -45 20 -71 16 -35 -4 -656
-176 -792 -219 -109 -34 -205 -85 -255 -134 -81 -81 -102 -141 -149 -423 -19
-112 -38 -207 -43 -212 -5 -5 -46 -20 -90 -33 l-81 -23 -34 103 -34 104 36 6
c19 3 45 9 58 14 31 13 29 60 -4 100 -19 22 -28 47 -33 92 -11 92 -43 108
-165 85 -42 -8 -79 -11 -81 -6 -12 19 56 494 73 511 4 4 25 -4 45 -18 40 -27
65 -28 78 -4 4 8 29 75 55 148 l47 132 31 -21 c56 -38 192 -98 246 -110 29 -6
87 -9 129 -7 130 8 226 75 285 198 56 120 46 301 -25 428 l-29 52 40 68 c64
106 92 205 98 349 5 138 -10 227 -59 346 -90 221 -310 386 -515 387 l-51 0
-12 43 c-27 90 -84 181 -166 262 -87 87 -149 126 -240 150 -70 18 -193 20
-267 4 l-52 -12 -25 34 c-49 67 -178 185 -246 225 -144 85 -302 122 -440 103z
m260 -125 c64 -22 148 -75 203 -128 41 -38 132 -156 132 -170 0 -3 -29 -42
-64 -87 -55 -69 -176 -271 -176 -293 0 -4 26 28 58 71 96 129 201 207 339 250
198 61 376 -2 495 -175 29 -41 78 -150 78 -172 0 -5 -19 -19 -42 -31 -59 -30
-170 -101 -165 -105 2 -2 48 7 101 21 107 27 232 33 301 14 93 -26 206 -90
269 -152 170 -171 218 -485 106 -706 -16 -33 -34 -62 -40 -66 -5 -3 -33 12
-61 35 -28 22 -54 40 -59 40 -4 0 21 -43 56 -96 136 -206 172 -368 113 -504
-40 -91 -102 -129 -210 -130 -102 0 -213 41 -316 117 -30 22 -33 29 -33 75 0
107 -72 189 -268 311 -137 85 -142 93 -89 153 37 44 162 105 250 125 48 10 55
14 40 23 -10 5 -47 10 -83 9 -53 0 -87 -9 -180 -46 -63 -25 -143 -51 -178 -58
-176 -34 -419 37 -556 162 -64 58 -96 108 -127 195 -26 72 -28 226 -5 319 8
33 13 61 12 62 -9 9 -61 -112 -100 -232 -49 -150 -65 -180 -111 -217 -27 -21
-39 -23 -145 -22 -96 0 -125 4 -174 23 -148 59 -202 170 -173 363 7 48 9 84 4
81 -12 -7 -52 -99 -68 -154 -7 -24 -15 -91 -18 -149 l-6 -105 -30 -3 c-16 -1
-61 -10 -98 -19 l-69 -17 -54 28 c-64 34 -162 135 -193 200 -70 144 -68 332 5
484 32 65 114 151 174 183 38 20 59 24 140 24 82 0 103 -4 152 -27 45 -21 58
-32 63 -55 16 -76 50 -165 86 -226 23 -38 43 -67 45 -65 2 2 -5 27 -16 54 -25
68 -43 203 -35 272 31 270 223 487 475 536 49 9 196 -3 245 -20z m-695 -1464
c210 -27 298 -43 453 -84 251 -66 495 -160 746 -285 353 -178 461 -268 461
-386 0 -48 -24 -151 -39 -167 -3 -4 -36 11 -71 34 -73 46 -248 133 -255 127
-2 -3 44 -41 103 -86 59 -44 128 -99 154 -122 l46 -41 -16 -50 c-9 -28 -20
-50 -24 -50 -5 0 -41 22 -81 49 -208 140 -562 327 -799 422 -332 133 -678 220
-997 250 -147 14 -161 16 -161 33 0 7 15 56 34 107 l34 94 53 7 c30 3 133 7
229 8 118 1 165 5 146 10 -43 13 -272 40 -339 40 -43 0 -57 4 -57 14 0 25 43
66 85 81 55 19 114 18 295 -5z m-55 -506 c317 -55 663 -174 1033 -354 l202
-100 0 -42 c1 -24 7 -54 15 -68 18 -32 19 -127 0 -305 -8 -77 -15 -173 -15
-213 0 -70 -1 -74 -38 -111 -20 -22 -55 -60 -76 -86 -43 -52 -142 -129 -192
-150 -80 -33 -144 -27 -192 18 -51 48 -88 161 -62 192 11 13 26 15 80 9 147
-14 252 53 329 209 62 128 76 235 46 350 -32 124 -111 232 -191 263 -67 26
-195 15 -303 -25 -47 -17 -93 -31 -103 -31 -40 0 -114 -244 -138 -453 -16
-134 -18 -475 -4 -507 10 -22 7 -31 -19 -68 -51 -71 -92 -67 -128 13 -22 47
-24 140 -9 314 14 151 35 239 71 297 40 61 46 103 25 158 -22 58 -53 85 -96
85 -19 0 -61 0 -92 2 -43 1 -68 -4 -105 -22 -42 -21 -48 -28 -51 -59 -9 -120
-57 -283 -159 -544 l-48 -121 -3 140 c-2 77 2 228 8 335 18 315 95 890 118
890 4 0 48 -7 97 -16z m870 -539 c31 -61 27 -237 -8 -369 -29 -109 -49 -149
-89 -179 -23 -17 -30 -18 -57 -7 -50 20 -54 30 -41 117 17 118 87 397 110 443
27 54 57 52 85 -5z m2203 -301 c26 -18 29 -55 5 -76 -10 -9 -76 -32 -148 -52
-71 -19 -240 -66 -375 -104 -159 -45 -252 -67 -265 -62 -30 11 -43 56 -23 76
9 9 157 56 329 105 173 49 343 97 379 108 36 10 67 19 70 20 3 1 16 -6 28 -15z
m74 -241 c47 -43 11 -76 -124 -113 -57 -15 -224 -62 -373 -104 -155 -44 -279
-74 -292 -71 -26 6 -41 50 -26 74 6 10 120 48 314 103 167 48 333 95 369 106
83 25 109 26 132 5z m59 -223 c27 -15 25 -65 -3 -84 -13 -8 -50 -22 -83 -31
-56 -15 -155 -43 -513 -144 -169 -48 -186 -49 -208 -16 -35 53 -22 59 387 176
206 59 380 107 387 108 7 1 22 -4 33 -9z m-1681 -171 c15 -27 61 -231 54 -238
-3 -4 -22 -11 -42 -16 l-37 -11 -8 -78 c-5 -43 -7 -80 -4 -82 3 -3 30 2 62 11
31 9 59 15 61 12 3 -3 8 -45 11 -93 9 -137 -49 -408 -98 -460 -71 -76 -101
128 -80 559 17 350 42 471 81 396z m1758 -72 c18 -14 15 -51 -5 -69 -10 -9
-117 -44 -238 -78 -121 -34 -291 -82 -378 -107 -150 -43 -159 -44 -182 -29
-32 21 -33 61 -2 79 12 8 81 31 152 51 72 19 238 67 370 104 231 66 255 70
283 49z m72 -249 c25 -46 -2 -61 -220 -123 -107 -30 -274 -78 -371 -105 -96
-28 -185 -50 -197 -50 -12 0 -29 11 -38 25 -15 22 -15 27 -1 48 12 18 47 32
168 66 85 24 251 72 369 106 118 35 228 62 245 62 21 -2 34 -10 45 -29z"/>
</g>
</svg>
